<svg xmlns="http://www.w3.org/2000/svg" xmlns:xlink="http://www.w3.org/1999/xlink" width="800" zoomAndPan="magnify" viewBox="0 0 600 599.999999" height="800" preserveAspectRatio="xMidYMid meet" version="1.0"><defs><g/><clipPath id="13112ad06a"><path d="M 60 306 L 532.5 306 L 532.5 412.699219 L 60 412.699219 Z M 60 306 " clip-rule="nonzero"/></clipPath><clipPath id="f4fc3ec2e2"><path d="M 86 167.449219 L 363 167.449219 L 363 282 L 86 282 Z M 86 167.449219 " clip-rule="nonzero"/></clipPath><clipPath id="4202d1588c"><path d="M 0.0390625 12 L 33 12 L 33 53 L 0.0390625 53 Z M 0.0390625 12 " clip-rule="nonzero"/></clipPath><clipPath id="211682c2e5"><rect x="0" width="362" y="0" height="71"/></clipPath></defs><g clip-path="url(#13112ad06a)"><path fill="#0dff00" d="M 532.164062 348.183594 C 427.289062 328.132812 343.222656 330.917969 286.5625 337.050781 C 250.519531 340.917969 135.453125 353.375 131.113281 388.378906 C 129.933594 397.957031 137.34375 406.917969 143.945312 413.050781 C 122.574219 408.996094 63.699219 395.972656 60.492188 368.46875 C 60.445312 368.140625 60.160156 365.546875 60.679688 362.714844 C 67.378906 324.972656 200.984375 309.121094 283.824219 307 C 337.039062 305.628906 372.941406 309.78125 407.851562 314.027344 C 452.90625 319.453125 482.34375 326.339844 512.914062 339.269531 C 521.078125 342.710938 527.679688 345.917969 532.164062 348.183594 Z M 532.164062 348.183594 " fill-opacity="1" fill-rule="nonzero"/></g><path fill="#1a3f90" d="M 418.375 296.667969 C 358.269531 289.402344 307.460938 287.988281 268.871094 288.554688 C 202.492188 289.496094 165.222656 296.242188 139.890625 302.234375 C 129.132812 304.78125 120.265625 307.234375 114.035156 309.074219 C 123.472656 301.808594 137.4375 292.234375 155.835938 283.976562 C 192.964844 267.277344 224.617188 266.378906 255.425781 265.484375 C 270.992188 265.011719 320.8125 264.539062 381.71875 283.363281 C 396.90625 288.082031 409.410156 292.894531 418.375 296.667969 Z M 418.375 296.667969 " fill-opacity="1" fill-rule="nonzero"/><g clip-path="url(#f4fc3ec2e2)"><path fill="#0dff00" d="M 224.476562 167.449219 L 86.34375 220.148438 C 90.210938 222.082031 94.082031 224.0625 97.949219 225.996094 L 97.949219 259.820312 C 94.222656 260.90625 91.484375 264.351562 91.484375 268.410156 C 91.484375 273.363281 95.496094 277.371094 100.449219 277.371094 C 105.402344 277.371094 109.414062 273.363281 109.414062 268.410156 C 109.414062 264.351562 106.675781 260.90625 102.949219 259.820312 L 102.949219 228.542969 C 112.148438 233.167969 121.347656 237.789062 130.5 242.414062 C 141.398438 235.335938 159.988281 225.195312 185.132812 220.195312 C 212.824219 214.722656 235.800781 218.023438 248.914062 220.949219 C 236.082031 218.96875 214.710938 217.316406 189.472656 223.261719 C 165.835938 228.828125 148.429688 238.828125 137.957031 245.953125 C 137.957031 257.699219 137.957031 269.492188 137.957031 281.242188 C 155.835938 274.117188 178.054688 266.992188 204.144531 262.511719 C 247.214844 255.105469 284.25 257.605469 310.433594 261.613281 L 310.433594 246.09375 L 362.46875 220.097656 Z M 224.476562 167.449219 " fill-opacity="1" fill-rule="nonzero"/></g><g transform="matrix(1, 0, 0, 1, 167, 367)"><g clip-path="url(#211682c2e5)"><g clip-path="url(#4202d1588c)"><g fill="#1a3f90" fill-opacity="1"><g transform="translate(0.446012, 52.088394)"><g><path d="M 31.65625 -37.078125 C 31.65625 -36.460938 31.441406 -35.804688 31.015625 -35.109375 C 30.597656 -34.421875 30.03125 -33.835938 29.3125 -33.359375 C 28.601562 -32.878906 27.804688 -32.640625 26.921875 -32.640625 L 19.640625 -32.640625 L 19.640625 0 L 16.46875 0 C 15.082031 0 13.9375 -0.441406 13.03125 -1.328125 C 12.125 -2.210938 11.671875 -3.539062 11.671875 -5.3125 L 11.671875 -32.640625 L 0.28125 -32.640625 L 0.28125 -35.234375 C 0.28125 -36.203125 0.675781 -37.164062 1.46875 -38.125 C 2.257812 -39.082031 3.460938 -39.5625 5.078125 -39.5625 L 31.65625 -39.5625 Z M 31.65625 -37.078125 "/></g></g></g></g><g fill="#1a3f90" fill-opacity="1"><g transform="translate(32.496991, 52.088394)"><g><path d="M 31.140625 -13.984375 C 31.140625 -4.203125 26.59375 0.6875 17.5 0.6875 C 14.957031 0.6875 12.644531 0.140625 10.5625 -0.953125 C 8.488281 -2.046875 6.832031 -3.648438 5.59375 -5.765625 C 4.363281 -7.890625 3.75 -10.453125 3.75 -13.453125 L 3.75 -31.1875 L 5.203125 -31.1875 C 7.429688 -31.1875 9.054688 -30.710938 10.078125 -29.765625 C 11.097656 -28.828125 11.609375 -27.453125 11.609375 -25.640625 L 11.609375 -14.203125 C 11.609375 -11.359375 12.210938 -9.3125 13.421875 -8.0625 C 14.640625 -6.8125 16.132812 -6.1875 17.90625 -6.1875 C 19.488281 -6.1875 20.789062 -6.769531 21.8125 -7.9375 C 22.832031 -9.113281 23.34375 -11.03125 23.34375 -13.6875 L 23.34375 -31.1875 L 24.71875 -31.1875 C 26.988281 -31.1875 28.625 -30.710938 29.625 -29.765625 C 30.632812 -28.828125 31.140625 -27.453125 31.140625 -25.640625 Z M 31.140625 -13.984375 "/></g></g></g><g fill="#1a3f90" fill-opacity="1"><g transform="translate(67.377706, 52.088394)"><g><path d="M 13.109375 -37.953125 C 13.109375 -36.722656 12.65625 -35.65625 11.75 -34.75 C 10.84375 -33.84375 9.773438 -33.390625 8.546875 -33.390625 C 7.316406 -33.390625 6.257812 -33.84375 5.375 -34.75 C 4.488281 -35.65625 4.046875 -36.722656 4.046875 -37.953125 C 4.046875 -39.179688 4.488281 -40.238281 5.375 -41.125 C 6.257812 -42.007812 7.316406 -42.453125 8.546875 -42.453125 C 9.773438 -42.453125 10.84375 -42.007812 11.75 -41.125 C 12.65625 -40.238281 13.109375 -39.179688 13.109375 -37.953125 Z M 18.65625 -4.390625 C 18.65625 -2.734375 18.296875 -1.539062 17.578125 -0.8125 C 16.867188 -0.0820312 15.6875 0.28125 14.03125 0.28125 C 11.03125 0.28125 8.726562 -0.539062 7.125 -2.1875 C 5.53125 -3.84375 4.734375 -6.253906 4.734375 -9.421875 C 4.734375 -9.722656 4.734375 -10.441406 4.734375 -11.578125 C 4.734375 -12.710938 4.734375 -14.078125 4.734375 -15.671875 C 4.734375 -17.273438 4.734375 -18.929688 4.734375 -20.640625 C 4.734375 -22.359375 4.734375 -23.957031 4.734375 -25.4375 C 4.734375 -26.925781 4.734375 -28.140625 4.734375 -29.078125 C 4.734375 -30.023438 4.734375 -30.5 4.734375 -30.5 L 6.9375 -30.5 C 8.664062 -30.5 10.019531 -30.023438 11 -29.078125 C 11.988281 -28.140625 12.484375 -26.6875 12.484375 -24.71875 L 12.484375 -10.171875 C 12.484375 -8.628906 12.847656 -7.554688 13.578125 -6.953125 C 14.304688 -6.359375 15.519531 -6.0625 17.21875 -6.0625 L 18.65625 -6.0625 Z M 18.65625 -4.390625 "/></g></g></g><g fill="#1a3f90" fill-opacity="1"><g transform="translate(86.608289, 52.088394)"><g><path d="M 4.046875 -29.921875 C 4.046875 -31.460938 4.207031 -32.632812 4.53125 -33.4375 C 4.863281 -34.25 5.453125 -35.140625 6.296875 -36.109375 C 6.835938 -36.722656 7.425781 -37.226562 8.0625 -37.625 C 8.695312 -38.03125 9.320312 -38.234375 9.9375 -38.234375 L 11.71875 -38.234375 L 11.71875 -31.1875 L 22.53125 -31.1875 L 22.53125 -28.015625 C 22.53125 -27.203125 22.15625 -26.378906 21.40625 -25.546875 C 20.65625 -24.722656 19.488281 -24.3125 17.90625 -24.3125 L 11.71875 -24.3125 L 11.71875 -12.125 C 11.71875 -10.125 12.148438 -8.691406 13.015625 -7.828125 C 13.890625 -6.960938 15.097656 -6.53125 16.640625 -6.53125 C 19.179688 -6.53125 21.046875 -6.894531 22.234375 -7.625 L 22.53125 -7.625 L 22.53125 -4.859375 C 22.53125 -3.273438 21.960938 -2.007812 20.828125 -1.0625 C 19.691406 -0.125 17.988281 0.34375 15.71875 0.34375 C 11.78125 0.34375 8.847656 -0.675781 6.921875 -2.71875 C 5.003906 -4.757812 4.046875 -7.585938 4.046875 -11.203125 Z M 4.046875 -29.921875 "/></g></g></g><g fill="#1a3f90" fill-opacity="1"><g transform="translate(109.996842, 52.088394)"><g><path d="M 13.109375 -37.953125 C 13.109375 -36.722656 12.65625 -35.65625 11.75 -34.75 C 10.84375 -33.84375 9.773438 -33.390625 8.546875 -33.390625 C 7.316406 -33.390625 6.257812 -33.84375 5.375 -34.75 C 4.488281 -35.65625 4.046875 -36.722656 4.046875 -37.953125 C 4.046875 -39.179688 4.488281 -40.238281 5.375 -41.125 C 6.257812 -42.007812 7.316406 -42.453125 8.546875 -42.453125 C 9.773438 -42.453125 10.84375 -42.007812 11.75 -41.125 C 12.65625 -40.238281 13.109375 -39.179688 13.109375 -37.953125 Z M 18.65625 -4.390625 C 18.65625 -2.734375 18.296875 -1.539062 17.578125 -0.8125 C 16.867188 -0.0820312 15.6875 0.28125 14.03125 0.28125 C 11.03125 0.28125 8.726562 -0.539062 7.125 -2.1875 C 5.53125 -3.84375 4.734375 -6.253906 4.734375 -9.421875 C 4.734375 -9.722656 4.734375 -10.441406 4.734375 -11.578125 C 4.734375 -12.710938 4.734375 -14.078125 4.734375 -15.671875 C 4.734375 -17.273438 4.734375 -18.929688 4.734375 -20.640625 C 4.734375 -22.359375 4.734375 -23.957031 4.734375 -25.4375 C 4.734375 -26.925781 4.734375 -28.140625 4.734375 -29.078125 C 4.734375 -30.023438 4.734375 -30.5 4.734375 -30.5 L 6.9375 -30.5 C 8.664062 -30.5 10.019531 -30.023438 11 -29.078125 C 11.988281 -28.140625 12.484375 -26.6875 12.484375 -24.71875 L 12.484375 -10.171875 C 12.484375 -8.628906 12.847656 -7.554688 13.578125 -6.953125 C 14.304688 -6.359375 15.519531 -6.0625 17.21875 -6.0625 L 18.65625 -6.0625 Z M 18.65625 -4.390625 "/></g></g></g><g fill="#1a3f90" fill-opacity="1"><g transform="translate(129.227425, 52.088394)"><g><path d="M 2.3125 -15.015625 C 2.3125 -18.140625 2.894531 -20.976562 4.0625 -23.53125 C 5.238281 -26.09375 6.972656 -28.125 9.265625 -29.625 C 11.554688 -31.132812 14.378906 -31.890625 17.734375 -31.890625 C 20.847656 -31.890625 23.503906 -31.144531 25.703125 -29.65625 C 27.898438 -28.175781 29.578125 -26.242188 30.734375 -23.859375 C 31.890625 -21.472656 32.46875 -18.890625 32.46875 -16.109375 C 32.46875 -12.992188 31.878906 -10.164062 30.703125 -7.625 C 29.523438 -5.082031 27.789062 -3.0625 25.5 -1.5625 C 23.207031 -0.0625 20.390625 0.6875 17.046875 0.6875 C 13.921875 0.6875 11.257812 -0.0390625 9.0625 -1.5 C 6.875 -2.96875 5.203125 -4.90625 4.046875 -7.3125 C 2.890625 -9.71875 2.3125 -12.285156 2.3125 -15.015625 Z M 24.4375 -15.015625 C 24.4375 -18.140625 23.835938 -20.578125 22.640625 -22.328125 C 21.453125 -24.078125 19.585938 -24.953125 17.046875 -24.953125 C 14.804688 -24.953125 13.128906 -24.125 12.015625 -22.46875 C 10.898438 -20.8125 10.34375 -18.691406 10.34375 -16.109375 C 10.34375 -13.035156 10.925781 -10.617188 12.09375 -8.859375 C 13.269531 -7.109375 15.148438 -6.234375 17.734375 -6.234375 C 20.003906 -6.234375 21.6875 -7.0625 22.78125 -8.71875 C 23.882812 -10.375 24.4375 -12.472656 24.4375 -15.015625 Z M 24.4375 -15.015625 "/></g></g></g><g fill="#1a3f90" fill-opacity="1"><g transform="translate(163.992623, 52.088394)"><g><path d="M 31.1875 0 L 29.109375 0 C 27.378906 0 26.003906 -0.488281 24.984375 -1.46875 C 23.960938 -2.457031 23.453125 -3.660156 23.453125 -5.078125 L 23.453125 -17.4375 C 23.453125 -20.0625 22.898438 -21.976562 21.796875 -23.1875 C 20.703125 -24.40625 19.15625 -25.015625 17.15625 -25.015625 C 15.5 -25.015625 14.140625 -24.40625 13.078125 -23.1875 C 12.023438 -21.976562 11.5 -20.253906 11.5 -18.015625 L 11.5 0 L 9.1875 0 C 7.53125 0 6.207031 -0.488281 5.21875 -1.46875 C 4.238281 -2.457031 3.75 -3.660156 3.75 -5.078125 L 3.75 -18.546875 C 3.75 -20.734375 4.238281 -22.847656 5.21875 -24.890625 C 6.207031 -26.929688 7.738281 -28.609375 9.8125 -29.921875 C 11.894531 -31.234375 14.554688 -31.890625 17.796875 -31.890625 C 20.253906 -31.890625 22.492188 -31.359375 24.515625 -30.296875 C 26.535156 -29.234375 28.148438 -27.679688 29.359375 -25.640625 C 30.578125 -23.609375 31.1875 -21.109375 31.1875 -18.140625 Z M 31.1875 0 "/></g></g></g><g fill="#1a3f90" fill-opacity="1"><g transform="translate(198.931086, 52.088394)"><g/></g></g><g fill="#1a3f90" fill-opacity="1"><g transform="translate(211.751482, 52.088394)"><g><path d="M 31.65625 -37.078125 C 31.65625 -36.460938 31.441406 -35.804688 31.015625 -35.109375 C 30.597656 -34.421875 30.03125 -33.835938 29.3125 -33.359375 C 28.601562 -32.878906 27.804688 -32.640625 26.921875 -32.640625 L 19.640625 -32.640625 L 19.640625 0 L 16.46875 0 C 15.082031 0 13.9375 -0.441406 13.03125 -1.328125 C 12.125 -2.210938 11.671875 -3.539062 11.671875 -5.3125 L 11.671875 -32.640625 L 0.28125 -32.640625 L 0.28125 -35.234375 C 0.28125 -36.203125 0.675781 -37.164062 1.46875 -38.125 C 2.257812 -39.082031 3.460938 -39.5625 5.078125 -39.5625 L 31.65625 -39.5625 Z M 31.65625 -37.078125 "/></g></g></g><g fill="#1a3f90" fill-opacity="1"><g transform="translate(243.802461, 52.088394)"><g><path d="M 21.71875 -23.625 L 21.4375 -23.625 C 20.851562 -23.851562 20.203125 -24.0625 19.484375 -24.25 C 18.773438 -24.445312 17.921875 -24.546875 16.921875 -24.546875 C 15.191406 -24.546875 13.863281 -24.035156 12.9375 -23.015625 C 12.007812 -21.992188 11.546875 -20.289062 11.546875 -17.90625 L 11.546875 0 L 9.421875 0 C 7.679688 0 6.300781 -0.421875 5.28125 -1.265625 C 4.257812 -2.117188 3.75 -3.351562 3.75 -4.96875 L 3.75 -19.296875 C 3.75 -21.367188 4.132812 -23.335938 4.90625 -25.203125 C 5.675781 -27.078125 6.910156 -28.59375 8.609375 -29.75 C 10.304688 -30.90625 12.519531 -31.484375 15.25 -31.484375 C 16.863281 -31.484375 18.140625 -31.222656 19.078125 -30.703125 C 20.023438 -30.179688 20.703125 -29.535156 21.109375 -28.765625 C 21.515625 -27.992188 21.71875 -27.207031 21.71875 -26.40625 Z M 21.71875 -23.625 "/></g></g></g><g fill="#1a3f90" fill-opacity="1"><g transform="translate(266.093769, 52.088394)"><g><path d="M 28.1875 -10.625 C 28.1875 -8.4375 27.6875 -6.503906 26.6875 -4.828125 C 25.6875 -3.148438 24.300781 -1.835938 22.53125 -0.890625 C 20.757812 0.046875 18.71875 0.515625 16.40625 0.515625 L 14.84375 0.515625 C 12.382812 0.515625 10.21875 0.09375 8.34375 -0.75 C 6.476562 -1.59375 5.015625 -2.765625 3.953125 -4.265625 C 2.898438 -5.773438 2.375 -7.472656 2.375 -9.359375 C 2.375 -11.203125 2.875 -12.851562 3.875 -14.3125 C 4.875 -15.78125 6.5 -16.945312 8.75 -17.8125 C 11 -18.6875 14.03125 -19.125 17.84375 -19.125 L 20.5625 -19.125 L 20.5625 -19.53125 C 20.5625 -21.71875 20.019531 -23.21875 18.9375 -24.03125 C 17.863281 -24.84375 16.171875 -25.25 13.859375 -25.25 C 11.046875 -25.25 8.84375 -24.832031 7.25 -24 C 5.65625 -23.175781 4.566406 -22.394531 3.984375 -21.65625 L 3.703125 -21.65625 L 3.703125 -24.140625 C 3.703125 -25.296875 4.078125 -26.460938 4.828125 -27.640625 C 5.578125 -28.816406 6.78125 -29.796875 8.4375 -30.578125 C 10.09375 -31.367188 12.285156 -31.765625 15.015625 -31.765625 C 17.328125 -31.765625 19.484375 -31.347656 21.484375 -30.515625 C 23.492188 -29.691406 25.113281 -28.257812 26.34375 -26.21875 C 27.570312 -24.175781 28.1875 -21.367188 28.1875 -17.796875 Z M 20.625 -10.578125 L 20.625 -13.578125 L 17.84375 -13.578125 C 14.914062 -13.578125 12.921875 -13.238281 11.859375 -12.5625 C 10.804688 -11.882812 10.28125 -10.910156 10.28125 -9.640625 C 10.28125 -8.453125 10.75 -7.507812 11.6875 -6.8125 C 12.632812 -6.125 13.957031 -5.78125 15.65625 -5.78125 C 18.96875 -5.78125 20.625 -7.378906 20.625 -10.578125 Z M 20.625 -10.578125 "/></g></g></g><g fill="#1a3f90" fill-opacity="1"><g transform="translate(296.643271, 52.088394)"><g><path d="M 27.609375 -21.140625 L 27.328125 -21.140625 C 26.828125 -22.023438 25.851562 -22.785156 24.40625 -23.421875 C 22.957031 -24.054688 21.117188 -24.375 18.890625 -24.375 C 17.390625 -24.375 15.992188 -24.007812 14.703125 -23.28125 C 13.410156 -22.550781 12.367188 -21.554688 11.578125 -20.296875 C 10.785156 -19.046875 10.390625 -17.648438 10.390625 -16.109375 C 10.390625 -13.304688 11.171875 -11.015625 12.734375 -9.234375 C 14.296875 -7.460938 16.382812 -6.578125 19 -6.578125 C 21.238281 -6.578125 23.03125 -6.875 24.375 -7.46875 C 25.726562 -8.070312 26.671875 -8.738281 27.203125 -9.46875 L 27.5 -9.46875 L 27.5 -5.890625 C 27.5 -4.003906 26.660156 -2.453125 24.984375 -1.234375 C 23.304688 -0.0234375 21.0625 0.578125 18.25 0.578125 C 16.132812 0.578125 14.113281 0.191406 12.1875 -0.578125 C 10.257812 -1.347656 8.554688 -2.4375 7.078125 -3.84375 C 5.597656 -5.25 4.429688 -6.894531 3.578125 -8.78125 C 2.734375 -10.664062 2.3125 -12.726562 2.3125 -14.96875 C 2.3125 -17.925781 2.972656 -20.65625 4.296875 -23.15625 C 5.628906 -25.664062 7.546875 -27.679688 10.046875 -29.203125 C 12.554688 -30.722656 15.582031 -31.484375 19.125 -31.484375 C 21.625 -31.484375 23.660156 -30.828125 25.234375 -29.515625 C 26.816406 -28.203125 27.609375 -26.625 27.609375 -24.78125 Z M 27.609375 -21.140625 "/></g></g></g><g fill="#1a3f90" fill-opacity="1"><g transform="translate(326.095526, 52.088394)"><g><path d="M 6.53125 -41.59375 C 8.414062 -41.59375 9.769531 -41.109375 10.59375 -40.140625 C 11.425781 -39.179688 11.84375 -37.953125 11.84375 -36.453125 L 11.84375 -17.84375 C 13.34375 -19.8125 14.863281 -21.765625 16.40625 -23.703125 C 17.945312 -25.648438 19.601562 -27.472656 21.375 -29.171875 C 22.300781 -30.054688 23.253906 -30.613281 24.234375 -30.84375 C 25.210938 -31.070312 26.316406 -31.1875 27.546875 -31.1875 L 32 -31.1875 L 32 -30.90625 C 31.457031 -30.445312 30.644531 -29.644531 29.5625 -28.5 C 28.488281 -27.363281 27.316406 -26.082031 26.046875 -24.65625 C 24.773438 -23.238281 23.539062 -21.828125 22.34375 -20.421875 C 21.15625 -19.015625 20.15625 -17.789062 19.34375 -16.75 C 20.582031 -15.207031 21.828125 -13.664062 23.078125 -12.125 C 24.328125 -10.582031 25.644531 -9.101562 27.03125 -7.6875 C 28 -6.757812 28.804688 -6.035156 29.453125 -5.515625 C 30.109375 -4.992188 30.71875 -4.609375 31.28125 -4.359375 C 31.84375 -4.109375 32.429688 -3.867188 33.046875 -3.640625 C 32.660156 -2.410156 32.082031 -1.46875 31.3125 -0.8125 C 30.539062 -0.15625 29.363281 0.171875 27.78125 0.171875 C 26.9375 0.171875 26.039062 -0.0195312 25.09375 -0.40625 C 24.15625 -0.789062 23.359375 -1.3125 22.703125 -1.96875 C 20.703125 -4.007812 18.816406 -6.164062 17.046875 -8.4375 C 15.273438 -10.707031 13.539062 -12.976562 11.84375 -15.25 L 11.84375 -0.0625 L 9.359375 0 C 5.816406 0.0390625 4.046875 -1.785156 4.046875 -5.484375 L 4.046875 -41.59375 Z M 6.53125 -41.59375 "/></g></g></g></g></g></svg>